<?xml version="1.0" standalone="no"?>
<!DOCTYPE svg PUBLIC "-//W3C//DTD SVG 20010904//EN"
 "http://www.w3.org/TR/2001/REC-SVG-20010904/DTD/svg10.dtd">
<svg version="1.0" xmlns="http://www.w3.org/2000/svg"
 width="470.000000pt" height="157.000000pt" viewBox="0 0 470.000000 157.000000"
 preserveAspectRatio="xMidYMid meet">

<g transform="translate(0.000000,157.000000) scale(0.100000,-0.100000)"
fill="#000000" stroke="none">
<path d="M60 1136 c0 -228 3 -417 8 -419 4 -2 157 -2 339 1 l333 5 0 111 c0
106 -7 136 -32 136 -4 0 -9 -51 -10 -112 l-3 -113 -289 -3 c-205 -2 -293 1
-302 9 -11 9 -14 81 -14 384 0 331 2 374 16 379 9 3 146 6 305 6 l289 0 0
-191 c0 -181 6 -229 30 -229 6 0 10 87 10 225 l0 225 -340 0 -340 0 0 -414z"/>
<path d="M1213 1331 c-77 -49 -39 -171 54 -171 25 0 43 8 65 30 27 27 30 36
25 72 -3 22 -14 49 -24 60 -29 28 -82 33 -120 9z"/>
<path d="M1180 1114 c-77 -28 -91 -39 -141 -115 l-52 -79 -66 0 -66 0 -90 90
c-80 80 -115 105 -115 82 0 -4 38 -45 85 -92 50 -50 85 -93 85 -105 0 -42 13
-47 110 -46 68 1 98 5 110 16 9 8 20 15 23 15 4 0 7 -38 7 -85 l0 -85 195 0
195 0 0 155 c0 175 -8 203 -63 232 -32 17 -185 29 -217 17z"/>
<path d="M2015 961 c-94 -43 -132 -144 -87 -230 26 -51 58 -70 178 -103 128
-34 157 -55 157 -115 0 -22 -6 -49 -12 -62 -28 -52 -151 -67 -251 -30 -99 36
-92 37 -88 -12 l3 -44 60 -17 c129 -36 274 -16 332 44 37 39 45 63 45 128 -1
104 -50 148 -211 188 -124 32 -140 44 -141 108 0 31 6 46 26 65 36 34 154 39
237 10 l58 -20 -3 42 c-3 41 -4 42 -48 54 -73 19 -208 16 -255 -6z"/>
<path d="M2490 660 l0 -320 205 0 205 0 0 35 0 35 -160 0 -160 0 0 115 0 115
151 0 150 0 -3 38 -3 37 -147 3 -148 3 0 89 0 90 155 0 155 0 0 40 0 40 -200
0 -200 0 0 -320z"/>
<path d="M3040 660 l0 -320 195 0 195 0 0 35 0 34 -152 3 -153 3 -3 283 -2
282 -40 0 -40 0 0 -320z"/>
<path d="M3527 974 c-4 -4 -7 -148 -7 -321 l0 -313 45 0 45 0 0 273 1 272 55
-145 c30 -80 66 -175 80 -212 l26 -68 42 0 43 0 79 213 79 212 3 -273 2 -272
40 0 40 0 0 320 0 321 -62 -3 -63 -3 -79 -212 c-44 -117 -82 -211 -84 -208 -3
3 -40 98 -82 212 l-78 208 -59 3 c-32 2 -62 0 -66 -4z"/>
<path d="M4365 968 c-84 -30 -120 -87 -113 -181 4 -54 8 -63 41 -93 21 -20 58
-39 91 -49 31 -8 81 -22 112 -31 73 -20 104 -51 104 -103 0 -31 -7 -49 -29
-73 -29 -33 -30 -33 -123 -32 -72 1 -104 6 -141 22 -27 12 -51 22 -53 22 -3 0
-4 -19 -2 -42 3 -38 6 -42 43 -55 58 -21 194 -28 252 -14 101 26 148 90 141
193 -7 99 -61 145 -204 174 -43 9 -91 22 -106 30 -62 32 -54 139 12 163 51 17
153 13 210 -8 l50 -19 0 42 0 43 -51 11 c-62 15 -193 14 -234 0z"/>
<path d="M1245 581 c-74 -22 -97 -93 -49 -150 21 -26 33 -31 69 -31 36 0 48 5
69 31 28 33 32 64 15 102 -16 35 -67 58 -104 48z"/>
<path d="M167 565 c-52 -29 -62 -96 -21 -144 22 -26 33 -31 70 -31 60 0 94 32
94 89 0 76 -77 122 -143 86z"/>
<path d="M678 551 c-66 -59 -29 -161 58 -161 46 0 70 14 90 51 20 40 11 82
-28 114 -40 34 -79 32 -120 -4z"/>
<path d="M91 322 c-65 -32 -75 -58 -76 -185 l0 -112 198 -3 197 -2 0 112 c0
130 -15 169 -75 194 -51 21 -200 19 -244 -4z"/>
<path d="M670 333 c-42 -16 -70 -48 -90 -101 -12 -31 -35 -92 -51 -134 l-28
-78 239 0 239 0 -35 98 c-51 143 -74 184 -114 204 -34 17 -126 23 -160 11z"/>
<path d="M1145 322 c-63 -30 -75 -61 -75 -191 l0 -111 195 0 195 0 0 113 c0
121 -8 147 -53 181 -41 30 -205 35 -262 8z"/>
</g>
</svg>
